<svg xmlns="http://www.w3.org/2000/svg" width="109.181" height="99.039" viewBox="0 0 109.181 99.039">
  <defs>
    <style>
      .cls-1, .cls-2 {
        fill: #364757;
      }

      .cls-2 {
        stroke: #ded8ff;
      }

      .cls-3 {
        fill: #ded8ff;
      }
    </style>
  </defs>
  <g id="computer" transform="translate(0.5 -1.5)">
    <path id="Path_16" data-name="Path 16" class="cls-1" d="M21.714,27.514a3.268,3.268,0,0,0,0,4.733,3.268,3.268,0,0,0,4.733,0,3.268,3.268,0,0,0,0-4.733,3.268,3.268,0,0,0-4.733,0Z" transform="translate(49.28 58.326)"/>
    <path id="Path_17" data-name="Path 17" class="cls-2" d="M104.8,59.471V9.776C104.8,6.057,102.434,2,95.335,2H12.847c-7.1,0-9.466,4.057-9.466,7.776v49.7A3.194,3.194,0,0,0,0,62.852V64.88c0,5.409,4.057,11.494,9.8,11.494H50.71V90.911a9.09,9.09,0,0,0,9.128,9.128H85.531a9.09,9.09,0,0,0,9.128-9.128V76.375h3.719c5.747,0,9.8-6.085,9.8-11.494V62.852A3.194,3.194,0,0,0,104.8,59.471ZM10.142,9.776c0-.338,0-1.014,2.7-1.014H50.71a3.381,3.381,0,0,0,6.761,0H95.335c2.7,0,2.7.676,2.7,1.014v49.7H94.659v-21.3a9.09,9.09,0,0,0-9.128-9.128H59.838a9.09,9.09,0,0,0-9.128,9.128v21.3H10.142Zm47.329,28.4a2.311,2.311,0,0,1,2.366-2.366H85.531A2.311,2.311,0,0,1,87.9,38.173v38.2H57.471ZM9.8,69.613c-1.014,0-2.366-1.69-3.043-3.381H50.71v3.381ZM85.531,93.278H59.838a2.311,2.311,0,0,1-2.366-2.366V83.136H87.9v7.776a2.311,2.311,0,0,1-2.366,2.366ZM98.377,69.613H94.659V66.233h6.423C100.744,67.923,99.392,69.613,98.377,69.613Z" transform="translate(0 0)"/>
    <rect id="Rectangle_13" data-name="Rectangle 13" class="cls-3" width="31.4" height="10.708" transform="translate(56.963 73.409)"/>
  </g>
</svg>
